<svg width="34" height="34" viewBox="0 0 34 34" fill="none" xmlns="http://www.w3.org/2000/svg">
<g clip-path="url(#clip0_424_193)">
<path fill-rule="evenodd" clip-rule="evenodd" d="M15.1297 27.0756L15.0108 28.2052L7.84195 27.4506C7.20929 27.4323 6.70276 26.9145 6.70276 26.2774L6.70276 24.6114C6.70276 23.9743 7.20929 23.4564 7.84195 23.4382L15.0108 22.6836L15.1297 23.8132L7.90629 24.5736L7.87648 24.5736C7.85514 24.5736 7.83862 24.5901 7.83862 24.6114L7.83862 26.2774C7.83862 26.2987 7.85514 26.3152 7.87648 26.3152L7.90629 26.3152L15.1297 27.0756Z" fill="#5C6D7D"/>
<path fill-rule="evenodd" clip-rule="evenodd" d="M1.13579 23.4207L1.13579 27.6167L6.66242 28.2521L6.66242 22.7853L1.13579 23.4207ZM7.19249 21.5811C7.52749 21.5811 7.79828 21.8518 7.79828 22.1868L7.79828 28.8505C7.79828 29.1855 7.52749 29.4563 7.19249 29.4563L0.605725 28.6991C0.270723 28.6991 -6.5626e-05 28.4283 -6.56114e-05 28.0933L-6.53863e-05 22.9441C-6.53716e-05 22.6091 0.270723 22.3383 0.605725 22.3383L7.19249 21.5811Z" fill="#5C6D7D"/>
<path fill-rule="evenodd" clip-rule="evenodd" d="M25.4874 18.0221C21.4104 18.0221 18.0917 21.3408 18.0917 25.4178C18.0917 29.4948 21.4104 32.8135 25.4874 32.8135C29.5643 32.8135 32.8831 29.4948 32.8831 25.4178C32.8831 21.3408 29.5643 18.0221 25.4874 18.0221ZM25.4874 16.8862C20.7831 16.8862 16.9558 20.7135 16.9558 25.4178C16.9558 30.1221 20.7831 33.9493 25.4874 33.9493C30.1917 33.9493 34.0189 30.1221 34.0189 25.4178C34.0189 20.7135 30.1917 16.8862 25.4874 16.8862Z" fill="#5C6D7D"/>
<path fill-rule="evenodd" clip-rule="evenodd" d="M26.2546 33.3814C26.2546 33.6951 26.0003 33.9493 25.6866 33.9493L23.3545 33.9493C18.3893 33.9493 14.2551 30.486 14.2551 25.4178C14.2551 20.3495 18.3893 16.8862 23.3545 16.8862L25.546 16.8862C25.8597 16.8862 26.1139 17.1405 26.1139 17.4542C26.1139 17.7678 25.8597 18.0221 25.546 18.0221L23.3545 18.0221C18.9111 18.0221 15.3909 21.0774 15.3909 25.4178C15.3909 29.7581 18.9111 32.8135 23.3545 32.8135L25.6866 32.8135C26.0003 32.8135 26.2546 33.0677 26.2546 33.3814Z" fill="#5C6D7D"/>
<path fill-rule="evenodd" clip-rule="evenodd" d="M25.5694 21.0411C23.1569 21.0411 21.1926 23.0055 21.1926 25.418C21.1926 27.8304 23.1569 29.7948 25.5694 29.7948C27.9819 29.7948 29.9462 27.8304 29.9462 25.418C29.9462 23.0055 27.9819 21.0411 25.5694 21.0411ZM25.5694 19.9053C22.5296 19.9053 20.0567 22.3782 20.0567 25.418C20.0567 28.4578 22.5296 30.9307 25.5694 30.9307C28.6092 30.9307 31.0821 28.4578 31.0821 25.418C31.0821 22.3782 28.6092 19.9053 25.5694 19.9053Z" fill="#5C6D7D"/>
<path fill-rule="evenodd" clip-rule="evenodd" d="M26.3796 25.4178C26.3796 24.9716 26.0156 24.6075 25.5694 24.6075C25.1232 24.6075 24.7591 24.9716 24.7591 25.4178C24.7591 25.864 25.1232 26.228 25.5694 26.228C26.0156 26.228 26.3796 25.864 26.3796 25.4178ZM25.5694 23.4717C26.6429 23.4717 27.5155 24.3443 27.5155 25.4178C27.5155 26.4913 26.6429 27.3639 25.5694 27.3639C24.4959 27.3639 23.6233 26.4913 23.6233 25.4178C23.6233 24.3443 24.4959 23.4717 25.5694 23.4717Z" fill="#E67861"/>
<path fill-rule="evenodd" clip-rule="evenodd" d="M4.61158 25.4935C4.61158 25.0473 4.24751 24.6832 3.80133 24.6832C3.35516 24.6832 2.99109 25.0473 2.99109 25.4935C2.99109 25.9396 3.35516 26.3037 3.80133 26.3037C4.24751 26.3037 4.61158 25.9396 4.61158 25.4935ZM3.80133 23.5474C4.87483 23.5474 5.74744 24.42 5.74744 25.4935C5.74744 26.567 4.87483 27.4396 3.80133 27.4396C2.72784 27.4396 1.85523 26.567 1.85523 25.4935C1.85523 24.42 2.72784 23.5474 3.80133 23.5474Z" fill="#E67861"/>
<path fill-rule="evenodd" clip-rule="evenodd" d="M18.8893 10.1893L19.0083 11.319L26.1771 10.5643C26.8098 10.5461 27.3163 10.0282 27.3163 9.39112L27.3163 7.7252C27.3163 7.08809 26.8098 6.57022 26.1771 6.55198L19.0083 5.79736L18.8893 6.92698L26.1128 7.68734L26.1426 7.68734C26.1639 7.68734 26.1805 7.70386 26.1805 7.7252L26.1805 9.39112C26.1805 9.41247 26.1639 9.42898 26.1426 9.42898L26.1128 9.42898L18.8893 10.1893Z" fill="#5C6D7D"/>
<path fill-rule="evenodd" clip-rule="evenodd" d="M32.8833 6.53446L32.8833 10.7305L27.3566 11.3658L27.3566 5.8991L32.8833 6.53446ZM26.8266 4.69482C26.4916 4.69482 26.2208 4.96561 26.2208 5.30061L26.2208 11.9643C26.2208 12.2993 26.4916 12.5701 26.8266 12.5701L33.4133 11.8129C33.7483 11.8129 34.0191 11.5421 34.0191 11.2071L34.0191 6.05785C34.0191 5.72285 33.7483 5.45206 33.4133 5.45206L26.8266 4.69482Z" fill="#5C6D7D"/>
<path fill-rule="evenodd" clip-rule="evenodd" d="M8.53168 1.13586C12.6087 1.13586 15.9274 4.45457 15.9274 8.53155C15.9274 12.6085 12.6087 15.9272 8.53168 15.9272C4.4547 15.9272 1.13598 12.6085 1.13598 8.53155C1.13598 4.45457 4.4547 1.13586 8.53168 1.13586ZM8.53168 -3.72926e-07C13.236 -5.78558e-07 17.0632 3.82725 17.0632 8.53155C17.0632 13.2359 13.236 17.0631 8.53168 17.0631C3.82738 17.0631 0.000122649 13.2359 0.000122443 8.53155C0.000122238 3.82726 3.82738 -1.67295e-07 8.53168 -3.72926e-07Z" fill="#5C6D7D"/>
<path fill-rule="evenodd" clip-rule="evenodd" d="M7.76447 16.4952C7.76447 16.8088 8.01874 17.0631 8.3324 17.0631L10.6645 17.0631C15.6297 17.0631 19.764 13.5998 19.764 8.53155C19.764 3.46331 15.6297 -3.438e-07 10.6645 -1.26764e-07L8.47303 -3.09721e-08C8.15937 -1.72617e-08 7.9051 0.25427 7.9051 0.567929C7.9051 0.881587 8.15937 1.13586 8.47303 1.13586L10.6645 1.13586C15.1079 1.13586 18.6281 4.1912 18.6281 8.53155C18.6281 12.8719 15.1079 15.9272 10.6645 15.9272L8.33239 15.9272C8.01874 15.9272 7.76447 16.1815 7.76447 16.4952Z" fill="#5C6D7D"/>
<path fill-rule="evenodd" clip-rule="evenodd" d="M8.44965 4.1549C10.8621 4.1549 12.8265 6.11926 12.8265 8.53174C12.8265 10.9442 10.8621 12.9086 8.44965 12.9086C6.03717 12.9086 4.07281 10.9442 4.07281 8.53174C4.07281 6.11926 6.03717 4.1549 8.44965 4.1549ZM8.44965 3.01904C11.4894 3.01904 13.9623 5.49194 13.9623 8.53174C13.9623 11.5715 11.4894 14.0444 8.44965 14.0444C5.40986 14.0444 2.93695 11.5715 2.93695 8.53174C2.93695 5.49195 5.40985 3.01904 8.44965 3.01904Z" fill="#5C6D7D"/>
<path fill-rule="evenodd" clip-rule="evenodd" d="M7.6394 8.53155C7.6394 8.08538 8.00347 7.72131 8.44965 7.72131C8.89582 7.72131 9.25989 8.08538 9.25989 8.53155C9.25989 8.97773 8.89582 9.3418 8.44965 9.3418C8.00347 9.3418 7.6394 8.97773 7.6394 8.53155ZM8.44965 6.58545C7.37615 6.58545 6.50354 7.45806 6.50354 8.53155C6.50354 9.60504 7.37615 10.4777 8.44965 10.4777C9.52314 10.4777 10.3958 9.60504 10.3958 8.53155C10.3958 7.45806 9.52314 6.58545 8.44965 6.58545Z" fill="#E67861"/>
<path fill-rule="evenodd" clip-rule="evenodd" d="M29.4075 8.60723C29.4075 8.16106 29.7715 7.79699 30.2177 7.79699C30.6639 7.79699 31.0279 8.16106 31.0279 8.60723C31.0279 9.05341 30.6639 9.41748 30.2177 9.41748C29.7715 9.41748 29.4075 9.05341 29.4075 8.60723ZM30.2177 6.66113C29.1442 6.66113 28.2716 7.53374 28.2716 8.60723C28.2716 9.68072 29.1442 10.5533 30.2177 10.5533C31.2912 10.5533 32.1638 9.68072 32.1638 8.60723C32.1638 7.53374 31.2912 6.66113 30.2177 6.66113Z" fill="#E67861"/>
</g>
<defs>
<clipPath id="clip0_424_193">
<rect width="34" height="34" fill="white"/>
</clipPath>
</defs>
</svg>
