<svg width="34" height="34" viewBox="0 0 34 34" fill="none" xmlns="http://www.w3.org/2000/svg">
<g clip-path="url(#clip0_424_328)">
<path fill-rule="evenodd" clip-rule="evenodd" d="M14.4405 15.7252C14.6889 15.9168 14.7349 16.2734 14.5433 16.5217L7.29247 25.921L7.26666 25.9468C7.25157 25.9619 7.25157 25.9852 7.26666 26.0003L8.44465 27.1783C8.45974 27.1934 8.4831 27.1934 8.49819 27.1783L8.51114 27.1654L17.3598 19.3893C17.5954 19.1822 17.9542 19.2054 18.1613 19.441C18.3683 19.6766 18.3452 20.0355 18.1096 20.2425L9.28624 27.9963C8.82652 28.4401 8.09514 28.4352 7.64148 27.9815L6.46349 26.8035C6.01482 26.3548 6.00504 25.6345 6.43413 25.174L13.644 15.828C13.8355 15.5796 14.1922 15.5336 14.4405 15.7252Z" fill="#5C6D7D"/>
<path fill-rule="evenodd" clip-rule="evenodd" d="M1.47187 29.6848L4.43889 32.6518L8.79608 29.1931L4.93052 25.3276L1.47187 29.6848ZM4.45378 24.1012C4.69066 23.8643 5.07362 23.8643 5.3105 24.1012L10.0224 28.8132C10.2593 29.05 10.2593 29.433 10.0224 29.6699L4.82945 33.792C4.59257 34.0288 4.20962 34.0288 3.97274 33.792L0.331688 30.1509C0.0948062 29.914 0.0948063 29.5311 0.331689 29.2942L4.45378 24.1012Z" fill="#5C6D7D"/>
<path fill-rule="evenodd" clip-rule="evenodd" d="M12.3412 18.6999L12.6116 19.0389L11.7237 19.7472L11.4411 19.393L11.4353 19.3853C10.5277 18.1645 9.90018 16.9026 9.64718 15.774C9.39835 14.664 9.48944 13.5505 10.2276 12.8124C11.122 11.9179 12.6093 11.9227 14.047 12.3777C15.5306 12.8472 17.1738 13.8508 18.6162 15.2933C20.0587 16.7358 21.0624 18.3789 21.5319 19.8625C21.9868 21.3002 21.9917 22.7875 21.0972 23.682C20.38 24.3991 19.3074 24.5052 18.2325 24.2832C17.1418 24.058 15.9221 23.4761 14.7341 22.6271L15.3944 21.703C16.4953 22.4897 17.57 22.9866 18.4621 23.1708C19.37 23.3583 19.9687 23.2041 20.294 22.8788C20.7183 22.4545 20.8703 21.5367 20.4489 20.2052C20.0421 18.9195 19.1459 17.4293 17.8131 16.0965C16.4802 14.7636 14.99 13.8675 13.7043 13.4606C12.3728 13.0392 11.455 13.1913 11.0307 13.6155C10.6958 13.9505 10.5427 14.5761 10.7555 15.5255C10.9637 16.4543 11.5018 17.5691 12.3412 18.6999Z" fill="#5C6D7D"/>
<path fill-rule="evenodd" clip-rule="evenodd" d="M20.2369 23.6845C20.4323 23.9299 20.7896 23.9705 21.035 23.7751L24.1848 21.2673C24.1852 21.267 24.1856 21.2667 24.1859 21.2665C25.5718 20.1742 26.3114 18.75 26.0954 16.9884C25.8864 15.2834 24.7918 13.3582 22.7778 11.1812L22.7628 11.165L22.7466 11.15C20.569 9.13552 18.6691 8.06648 16.9752 7.87197C15.2302 7.67158 13.816 8.40913 12.6774 9.72235L12.6696 9.73134L10.1526 12.8928C9.95727 13.1382 9.99782 13.4955 10.2432 13.6908C10.4886 13.8862 10.8459 13.8456 11.0413 13.6003L13.5433 10.4576C14.4976 9.36075 15.5633 8.85316 16.8457 9.00042C18.1792 9.15355 19.8539 10.0248 21.959 11.9688C23.9036 14.0745 24.8026 15.7773 24.968 17.1266C25.1268 18.4221 24.6186 19.4796 23.4819 20.3751L23.4808 20.376L20.3275 22.8865C20.0821 23.0819 20.0416 23.4392 20.2369 23.6845Z" fill="#5C6D7D"/>
<path fill-rule="evenodd" clip-rule="evenodd" d="M16.8143 8.70206C17.0505 8.90839 17.4093 8.88415 17.6156 8.64791L18.3484 7.8089C18.9126 7.20528 19.747 6.88021 20.7978 7.03489C21.8678 7.1924 23.1906 7.85548 24.6376 9.30251C26.1165 10.7814 26.7791 12.0759 26.9379 13.1133C27.0922 14.1214 26.7803 14.934 26.1881 15.5337L25.4009 16.216C25.1639 16.4214 25.1383 16.7801 25.3437 17.0171C25.5491 17.2541 25.9078 17.2798 26.1448 17.0743L26.9633 16.365L26.9776 16.3507C27.829 15.4993 28.272 14.3219 28.0607 12.9414C27.8526 11.5826 27.0206 10.0791 25.4408 8.49933C23.8826 6.94118 22.3485 6.11507 20.9632 5.91115C19.5623 5.70492 18.3451 6.1435 17.5105 7.04192L17.5046 7.04829L16.7601 7.90072C16.5538 8.13696 16.578 8.49573 16.8143 8.70206Z" fill="#5C6D7D"/>
<path fill-rule="evenodd" clip-rule="evenodd" d="M12.8747 18.2525C12.774 18.0805 12.6864 17.9117 12.612 17.7481C12.4068 17.2966 12.3109 16.9031 12.305 16.5973C12.299 16.294 12.3798 16.1218 12.4761 16.0256C12.6363 15.8654 13.0388 15.7552 13.7995 16.0385C14.5175 16.306 15.3733 16.8697 16.1799 17.6763C16.9864 18.4829 17.5502 19.3387 17.8176 20.0567C18.1009 20.8173 17.9908 21.2199 17.8306 21.3801C17.7188 21.4918 17.4987 21.5849 17.0954 21.5402C16.6958 21.496 16.1906 21.3203 15.6363 21.0004L15.0686 21.9842C15.7119 22.3554 16.3686 22.6025 16.9703 22.6692C17.5684 22.7355 18.1893 22.6277 18.6337 22.1832C19.2905 21.5264 19.2039 20.5243 18.882 19.6602C18.5443 18.7534 17.8742 17.7642 16.983 16.8731C16.0919 15.982 15.1027 15.3119 14.1959 14.9741C13.3318 14.6523 12.3297 14.5656 11.6729 15.2224C11.2945 15.6008 11.1594 16.1108 11.1693 16.6195C11.1792 17.1258 11.331 17.6746 11.578 18.2181C11.6696 18.4195 11.7754 18.6229 11.8944 18.8262L12.8747 18.2525Z" fill="#5C6D7D"/>
<path fill-rule="evenodd" clip-rule="evenodd" d="M5.42352 28.7213C5.10802 28.4058 4.59315 28.4058 4.27766 28.7213C3.96216 29.0368 3.96216 29.5516 4.27766 29.8671C4.59315 30.1826 5.10802 30.1826 5.42352 29.8671C5.73901 29.5516 5.73901 29.0368 5.42352 28.7213ZM3.47448 27.9181C4.23356 27.159 5.46762 27.159 6.22669 27.9181C6.98576 28.6772 6.98576 29.9112 6.22669 30.6703C5.46762 31.4294 4.23356 31.4294 3.47448 30.6703C2.71541 29.9112 2.71541 28.6772 3.47448 27.9181Z" fill="#E67861"/>
<path fill-rule="evenodd" clip-rule="evenodd" d="M26.7036 12.088C26.932 12.3029 27.2914 12.292 27.5064 12.0636L29.3488 10.1061C29.5637 9.87771 29.5528 9.51828 29.3244 9.30331C29.096 9.08834 28.7366 9.09923 28.5216 9.32764L26.6792 11.2852C26.4643 11.5136 26.4752 11.873 26.7036 12.088ZM21.8165 7.10698C22.0265 7.34001 22.3856 7.35871 22.6186 7.14876L28.0382 2.2657L28.0487 2.25525C28.0615 2.24237 28.0813 2.24237 28.0942 2.25525L28.0948 2.25586L31.5327 5.67308C31.5328 5.67316 31.5329 5.67325 31.533 5.67333C31.5456 5.68621 31.5455 5.70582 31.5327 5.71861L31.5125 5.73889L30.6237 6.82787C30.4254 7.07087 30.4616 7.42863 30.7046 7.62696C30.9476 7.82528 31.3053 7.78906 31.5037 7.54606L32.3591 6.49795C32.7922 6.03995 32.7845 5.3185 32.3359 4.8699L32.3353 4.8693L28.8974 1.45208C28.8971 1.45181 28.8968 1.45155 28.8966 1.45128C28.4441 0.999663 27.7148 0.995917 27.2577 1.44005L21.8583 6.3049C21.6253 6.51485 21.6066 6.87396 21.8165 7.10698Z" fill="#5C6D7D"/>
<path fill-rule="evenodd" clip-rule="evenodd" d="M29.0514 5.97451L27.6057 7.42022L31.2467 11.0613L32.6924 9.61556L29.0514 5.97451ZM29.6672 4.98393L33.683 8.99979C34.0231 9.33987 34.0231 9.89125 33.683 10.2313L31.8625 12.0518C31.5224 12.3919 30.971 12.3919 30.631 12.0518L26.6151 8.03599C26.275 7.69591 26.275 7.14453 26.6151 6.80445L28.4356 4.98393C28.7757 4.64385 29.3271 4.64385 29.6672 4.98393Z" fill="#E67861"/>
</g>
<defs>
<clipPath id="clip0_424_328">
<rect width="34" height="34" fill="white"/>
</clipPath>
</defs>
</svg>
