<svg width="22" height="22" viewBox="0 0 22 22" fill="none" xmlns="http://www.w3.org/2000/svg">
<path opacity="0.5" d="M21.4436 3.0842C21.2247 2.50021 20.8872 1.97097 20.4403 1.5421C20.0116 1.09498 19.4826 0.757362 18.8988 0.538366C18.4245 0.355869 17.7131 0.136873 16.4088 0.0729988C14.995 0.0182497 14.5755 0 10.9909 0C7.41542 0 6.98673 0.00912484 5.57297 0.0821236C4.26866 0.136873 3.55721 0.355869 3.08292 0.538366C2.49917 0.757362 1.97015 1.09498 1.54146 1.5421C1.09453 1.97097 0.757048 2.50021 0.538143 3.0842C0.355721 3.55869 0.136816 4.27043 0.0729685 5.57528C0.0182421 6.98963 0 7.4185 0 10.9954C0 14.5815 0.0182421 15.0012 0.0820896 16.4156C0.145937 17.7204 0.355721 18.4322 0.547264 18.9067C0.766169 19.4907 1.10365 20.0199 1.55058 20.4488C1.97927 20.8959 2.50829 21.2335 3.09204 21.4525C3.56633 21.635 4.27778 21.854 5.58209 21.9179C6.99585 21.9817 7.41542 22 11 22C14.5846 22 15.0041 21.9909 16.4179 21.9179C17.7222 21.854 18.4337 21.6441 18.908 21.4525C20.0755 21.0054 21.0058 20.0747 21.4527 18.9067C21.6352 18.4322 21.8541 17.7204 21.9179 16.4156C21.9818 15.0012 22 14.5724 22 10.9954C22 7.40937 21.9909 6.98963 21.9179 5.57528C21.8449 4.27043 21.626 3.55869 21.4436 3.0842ZM10.9909 17.8847C7.1874 17.8847 4.10448 14.8005 4.10448 10.9954C4.10448 7.19038 7.1874 4.10618 10.9909 4.10618C14.7944 4.10618 17.8773 7.19038 17.8773 10.9954C17.8773 14.8005 14.7944 17.8847 10.9909 17.8847ZM18.1509 5.44753C17.2662 5.44753 16.5456 4.72667 16.5456 3.84156C16.5456 2.95645 17.2662 2.23559 18.1509 2.23559C19.0357 2.23559 19.7562 2.95645 19.7562 3.84156C19.7562 4.72667 19.0357 5.44753 18.1509 5.44753Z" fill="#DDE8F0"/>
</svg>
