<svg width="30" height="24" viewBox="0 0 30 24" fill="none" xmlns="http://www.w3.org/2000/svg">
<path d="M29.5357 4.82601C28.5451 2.13982 26.1738 0.382286 23.3479 0.238437C23.3367 0.238144 23.3262 0.237793 23.3154 0.237793H22.9006C19.333 0.237793 16.2684 2.43461 14.9888 5.54637C13.7091 2.43461 10.6446 0.237793 7.07692 0.237793H6.66219C6.65135 0.237793 6.64051 0.238086 6.62967 0.238437C3.81012 0.381993 1.44613 2.14082 0.460988 4.82888C-0.55609 7.60408 0.137196 10.5704 2.26797 12.5694L13.4773 23.1716C13.9147 23.5653 14.4679 23.7618 15.0169 23.7618C15.5714 23.7618 16.1213 23.5615 16.5431 23.1618L18.2473 21.5535C18.6751 21.1257 18.9173 20.5617 18.9288 19.9661C18.9403 19.357 18.7099 18.7844 18.2793 18.354C18.0301 18.1049 17.6262 18.1049 17.377 18.354C17.1279 18.6031 17.1279 19.007 17.377 19.2562C17.7589 19.6385 17.7452 20.251 17.3585 20.638L15.6667 22.2341C15.3046 22.5764 14.7176 22.5713 14.3424 22.2338L3.14273 11.6401C1.38971 9.99554 0.821518 7.55404 1.65924 5.26787C2.46321 3.07363 4.38563 1.63608 6.67877 1.51356H7.07692C11.0877 1.51356 14.3507 4.77656 14.3507 8.78733C14.3507 9.13954 14.6365 9.42537 14.9887 9.42537C15.3409 9.42537 15.6268 9.13954 15.6268 8.78733C15.6268 4.77656 18.8897 1.51356 22.9005 1.51356H23.2987C25.5991 1.63673 27.5293 3.07393 28.3383 5.26752C29.1783 7.54537 28.6136 9.98781 26.8519 11.6544L23.2789 15.2275C22.8498 15.6566 22.6133 16.2187 22.6133 16.8111C22.6133 17.4036 22.8497 17.9656 23.2789 18.3947C23.528 18.6439 23.9319 18.6439 24.1811 18.3947C24.4302 18.1456 24.4302 17.7417 24.1811 17.4925C23.9929 17.3043 23.8895 17.0625 23.8895 16.811C23.8895 16.5596 23.9929 16.3179 24.1811 16.1296L27.7414 12.5689C29.8682 10.558 30.5554 7.59101 29.5357 4.82601Z" fill="#33485D"/>
</svg>
