<svg width="22" height="18" viewBox="0 0 22 18" fill="none" xmlns="http://www.w3.org/2000/svg">
<path opacity="0.5" d="M22 2.11647C21.1905 2.47545 20.3206 2.71807 19.4076 2.82719C20.3396 2.26856 21.0552 1.38402 21.3922 0.330093C20.5201 0.847281 19.5542 1.22292 18.5261 1.42539C17.7027 0.548169 16.5297 0 15.2315 0C12.7387 0 10.7178 2.02087 10.7178 4.51346C10.7178 4.86722 10.7578 5.21171 10.8347 5.54205C7.08347 5.35382 3.75768 3.5569 1.53153 0.826197C1.14301 1.49282 0.920429 2.26816 0.920429 3.09532C0.920429 4.66121 1.71733 6.04274 2.92842 6.85212C2.18849 6.8287 1.49258 6.62567 0.883975 6.28761C0.883653 6.30644 0.883653 6.32535 0.883653 6.34434C0.883653 8.53123 2.43948 10.3555 4.50429 10.7701C4.12551 10.8733 3.72678 10.9284 3.31509 10.9284C3.02427 10.9284 2.74149 10.9001 2.46596 10.8474C3.04028 12.6406 4.70716 13.9456 6.68224 13.982C5.13752 15.1925 3.19132 15.9141 1.0767 15.9141C0.712411 15.9141 0.353107 15.8928 0 15.8511C1.99745 17.1317 4.36998 17.8789 6.91891 17.8789C15.221 17.8789 19.7608 11.0013 19.7608 5.03685C19.7608 4.84114 19.7565 4.64648 19.7478 4.45295C20.6296 3.81658 21.3949 3.02161 22 2.11647Z" fill="#DDE8F0"/>
</svg>
