<svg width="26" height="18" viewBox="0 0 26 18" fill="none" xmlns="http://www.w3.org/2000/svg">
<path opacity="0.5" d="M24.895 1.7225C24.1898 0.468 23.4244 0.23725 21.866 0.1495C20.3093 0.043875 16.3946 0 13.0033 0C9.60538 0 5.68913 0.0438751 4.134 0.147875C2.57887 0.23725 1.81187 0.466375 1.10012 1.7225C0.37375 2.97537 0 5.13338 0 8.93263C0 8.93588 0 8.9375 0 8.9375C0 8.94075 0 8.94238 0 8.94238V8.94563C0 12.7286 0.37375 14.9029 1.10012 16.1427C1.81187 17.3972 2.57725 17.6248 4.13237 17.7304C5.68913 17.8214 9.60538 17.875 13.0033 17.875C16.3946 17.875 20.3092 17.8214 21.8676 17.732C23.426 17.6264 24.1914 17.3989 24.8966 16.1444C25.6295 14.9045 26 12.7302 26 8.94725C26 8.94725 26 8.94238 26 8.93913V8.93425C26 5.13338 25.6295 2.97537 24.895 1.7225ZM9.75 13.8125V4.0625L17.875 8.9375L9.75 13.8125Z" fill="#DDE8F0"/>
</svg>
