<svg width="34" height="34" viewBox="0 0 34 34" fill="none" xmlns="http://www.w3.org/2000/svg">
<g clip-path="url(#clip0_424_554)">
<path fill-rule="evenodd" clip-rule="evenodd" d="M31.7872 28.7053L30.996 29.9967C29.576 32.3147 26.5457 33.0426 24.2277 31.6225L22.9363 30.8313C20.6184 29.4113 19.8905 26.381 21.3105 24.063L22.1017 22.7717C23.5218 20.4537 26.5521 19.7258 28.87 21.1459L30.1614 21.937C32.4794 23.3571 33.2073 26.3874 31.7872 28.7053ZM30.8186 28.112C31.911 26.3289 31.3511 23.9979 29.568 22.9056L28.2766 22.1144C26.4936 21.0221 24.1626 21.582 23.0703 23.365L22.2791 24.6564C21.1867 26.4395 21.7466 28.7704 23.5297 29.8628L24.8211 30.654C26.6041 31.7463 28.9351 31.1864 30.0275 29.4034L30.8186 28.112Z" fill="#E67861"/>
<path fill-rule="evenodd" clip-rule="evenodd" d="M28.2882 27.894L28.5651 27.4421C29.1113 26.5505 28.8313 25.385 27.9398 24.8389L27.2295 24.4037C26.338 23.8576 25.1725 24.1375 24.6263 25.029L24.3494 25.481C23.8032 26.3725 24.0832 27.538 24.9747 28.0842L25.685 28.5193C26.5765 29.0655 27.742 28.7856 28.2882 27.894ZM29.5336 28.0354C30.4075 26.609 29.9596 24.7442 28.5332 23.8703L27.8229 23.4352C26.3965 22.5613 24.5317 23.0092 23.6578 24.4357L23.3809 24.8876C22.507 26.3141 22.9549 28.1789 24.3814 29.0528L25.0916 29.4879C26.5181 30.3618 28.3829 29.9139 29.2567 28.4874L29.5336 28.0354Z" fill="#5C6D7D"/>
<path d="M23.7676 32.2288L24.361 31.2603L23.3924 30.6669L22.799 31.6354L23.7676 32.2288Z" fill="#E67861"/>
<path d="M29.8595 22.285L30.4529 21.3164L29.4843 20.723L28.891 21.6916L29.8595 22.285Z" fill="#E67861"/>
<path d="M32.4822 22.1509L32.4851 26.6853L31.4145 25.538L31.3493 22.0855C31.373 21.6704 31.2738 21.2574 31.064 20.8983C30.4748 19.8898 29.2442 19.5894 28.2358 20.1785L25.0302 21.7155L23.5167 21.2812L27.6636 19.1988C28.2144 18.8777 28.8475 18.7256 29.484 18.7615C31.2767 18.8626 32.5833 20.3582 32.4822 22.1509Z" fill="#E67861"/>
<path d="M25.4688 33.5983L29.5099 31.5413L28.0015 31.1087L24.8961 32.6187C24.537 32.8283 24.124 32.9275 23.7088 32.9037C22.5427 32.8369 21.7162 31.877 21.783 30.711L21.6963 27.1571L20.6219 26.0059L20.6502 30.6462C20.6143 31.2828 20.7664 31.9159 21.0875 32.4667C21.9918 34.0178 23.9177 34.5026 25.4688 33.5983Z" fill="#E67861"/>
<path fill-rule="evenodd" clip-rule="evenodd" d="M12.7349 10.053L11.9438 11.3444C10.5237 13.6624 7.49344 14.3902 5.17548 12.9702L3.88409 12.179C1.56612 10.7589 0.83824 7.72867 2.25831 5.4107L3.04947 4.11931C4.46954 1.80134 7.49981 1.07346 9.81778 2.49353L11.1092 3.28469C13.4271 4.70476 14.155 7.73504 12.7349 10.053ZM11.7664 9.45963C12.8588 7.67658 12.2989 5.3456 10.5158 4.25324L9.22441 3.46208C7.44136 2.36972 5.11038 2.92963 4.01802 4.71268L3.22686 6.00407C2.1345 7.78712 2.69441 10.1181 4.47745 11.2105L5.76885 12.0016C7.5519 13.094 9.88288 12.5341 10.9752 10.751L11.7664 9.45963Z" fill="#5C6D7D"/>
<path fill-rule="evenodd" clip-rule="evenodd" d="M9.23601 9.24122L9.51292 8.78923C10.0591 7.89771 9.77914 6.73222 8.88762 6.18604L8.17735 5.7509C7.28583 5.20472 6.12034 5.48467 5.57415 6.3762L5.29725 6.82818C4.75107 7.71971 5.03102 8.8852 5.92255 9.43138L6.63282 9.86651C7.52434 10.4127 8.68983 10.1327 9.23601 9.24122ZM10.4815 9.3826C11.3554 7.95616 10.9074 6.09138 9.48099 5.21749L8.77072 4.78235C7.34428 3.90846 5.4795 4.35639 4.60561 5.78283L4.3287 6.23482C3.45481 7.66125 3.90274 9.52604 5.32918 10.3999L6.03945 10.8351C7.46589 11.709 9.33067 11.261 10.2046 9.83459L10.4815 9.3826Z" fill="#E67861"/>
<path d="M4.71535 13.5765L5.30872 12.6079L4.34017 12.0145L3.7468 12.9831L4.71535 13.5765Z" fill="#5C6D7D"/>
<path d="M10.8073 3.63261L11.4006 2.66406L10.4321 2.07069L9.83872 3.03924L10.8073 3.63261Z" fill="#5C6D7D"/>
<path d="M13.43 3.49802L13.4329 8.03251L12.3623 6.88514L12.2971 3.43272C12.3208 3.01755 12.2216 2.60458 12.0118 2.24549C11.4226 1.23696 10.192 0.936575 9.18357 1.52572L5.97801 3.06266L4.46452 2.62837L8.61138 0.54596C9.16219 0.22483 9.79528 0.0727583 10.4319 0.108672C12.2245 0.209799 13.5311 1.70542 13.43 3.49802Z" fill="#5C6D7D"/>
<path d="M6.41665 14.946L10.4577 12.889L8.94931 12.4564L5.84391 13.9663C5.4848 14.176 5.07183 14.2752 4.65663 14.2514C3.49053 14.1846 2.66398 13.2247 2.7308 12.0587L2.64409 8.50474L1.56975 7.35363L1.59804 11.9939C1.56213 12.6305 1.7142 13.2636 2.03533 13.8144C2.93963 15.3655 4.86556 15.8503 6.41665 14.946Z" fill="#5C6D7D"/>
<path d="M15.7611 24.6652C15.7543 24.5853 15.7446 24.5059 15.7356 24.4266C15.7191 24.2968 15.6987 24.1676 15.6789 24.039C15.6517 23.8837 15.6188 23.7307 15.582 23.5794C15.5559 23.4712 15.531 23.363 15.4998 23.2553L15.4942 23.2383C15.4341 23.0343 15.3633 22.8348 15.2862 22.6382C15.2754 22.611 15.2669 22.5815 15.2556 22.5549C15.1723 22.3498 15.0788 22.1503 14.9779 21.9542C14.97 21.9384 14.9632 21.9214 14.9547 21.9055C14.8482 21.7026 14.7326 21.5088 14.6085 21.315C14.6022 21.306 14.5971 21.2963 14.5909 21.2867C14.4679 21.0997 14.3365 20.9195 14.1976 20.7444C14.1835 20.7291 14.1738 20.7138 14.1625 20.7002C14.0344 20.5415 13.8984 20.3902 13.7585 20.2429C13.7307 20.214 13.7058 20.1828 13.6774 20.1545C13.5584 20.0332 13.4321 19.9199 13.3046 19.8071C13.2479 19.7578 13.1969 19.7051 13.1397 19.657C13.0399 19.5737 12.934 19.4989 12.8303 19.4207C12.7396 19.3527 12.6523 19.2813 12.5588 19.2178C12.4767 19.1611 12.3888 19.1135 12.3055 19.0614C12.1922 18.9917 12.0857 18.918 11.9706 18.8551C11.9621 18.85 11.9531 18.8466 11.9446 18.8421C11.8992 18.8172 11.8505 18.7973 11.8046 18.7735C11.6425 18.6897 11.4793 18.6075 11.3116 18.5361C11.2408 18.5055 11.166 18.4794 11.0934 18.4534C10.9461 18.3967 10.7999 18.34 10.6492 18.2907C10.5636 18.2635 10.4752 18.2437 10.3879 18.2199C10.2468 18.1808 10.1046 18.1406 9.96181 18.11C9.86434 18.089 9.76461 18.076 9.66601 18.059C9.53001 18.0363 9.39458 18.0119 9.25744 17.9966C9.14411 17.9836 9.02681 17.9791 8.91121 17.9711C8.79561 17.9632 8.66924 17.9547 8.54684 17.953C8.50717 17.953 8.46807 17.9468 8.42784 17.9468C8.32017 17.9468 8.21478 17.9581 8.10824 17.9632C8.02324 17.9672 7.93824 17.9689 7.85267 17.9757C7.66454 17.9904 7.47981 18.0142 7.29621 18.0431C7.25484 18.0493 7.21348 18.0544 7.17154 18.0618C6.9577 18.0996 6.74732 18.146 6.54027 18.2012C6.52667 18.2046 6.51307 18.2063 6.50004 18.2097L6.48021 18.2159C6.25885 18.2771 6.04196 18.3482 5.82968 18.429L5.77301 18.4483C5.56072 18.531 5.3529 18.623 5.14967 18.7242C5.13211 18.7333 5.11454 18.7407 5.09754 18.7497C4.89864 18.8506 4.70597 18.9611 4.51841 19.079C4.49687 19.0926 4.47534 19.1045 4.45438 19.1181C4.27758 19.2314 4.10701 19.3538 3.94097 19.4819C3.91037 19.5057 3.87807 19.5272 3.84804 19.5516C3.69957 19.6694 3.55791 19.7952 3.41964 19.9239C3.37544 19.9647 3.33011 20.0026 3.28761 20.044C3.17087 20.1573 3.06094 20.2786 2.95157 20.3999C2.89491 20.4633 2.83824 20.5234 2.78158 20.588C2.69431 20.6923 2.61157 20.8028 2.53281 20.9116C2.46707 20.9988 2.39794 21.0816 2.33617 21.1745C2.26761 21.2742 2.20811 21.3802 2.14464 21.4839C2.08117 21.5876 2.02224 21.6709 1.96841 21.7672C1.96444 21.7746 1.96161 21.7825 1.95764 21.7893C1.82617 22.0328 1.70845 22.2835 1.60517 22.5402C1.57627 22.611 1.55304 22.6824 1.52641 22.7538C1.45331 22.9516 1.38757 23.1505 1.33091 23.3579C1.30881 23.4389 1.28784 23.5194 1.26801 23.601C1.21927 23.8072 1.18017 24.0163 1.14844 24.2283C1.13711 24.3036 1.12294 24.3779 1.11444 24.4549C1.0798 24.7396 1.06188 25.0261 1.06061 25.3129C1.06061 25.5288 1.07364 25.7447 1.09347 25.9606C1.10027 26.0405 1.10991 26.1198 1.11897 26.1991C1.13541 26.3289 1.15581 26.4581 1.17564 26.5867C1.20284 26.742 1.23571 26.895 1.27254 27.0463C1.29861 27.1545 1.32354 27.2628 1.35471 27.3704L1.36037 27.3874C1.42101 27.592 1.49184 27.792 1.56891 27.9887C1.57911 28.0159 1.58761 28.0453 1.59837 28.0703C1.68224 28.2765 1.77631 28.4777 1.87774 28.6743C1.88567 28.6891 1.89191 28.7044 1.89927 28.7191C2.00694 28.9239 2.12346 29.1224 2.24891 29.3147C2.25401 29.3226 2.25797 29.3305 2.26307 29.3379C2.38717 29.5272 2.52034 29.7096 2.65974 29.887C2.66937 29.8989 2.67787 29.9114 2.68751 29.9233C2.81671 30.0842 2.95497 30.2378 3.09777 30.3874C3.12271 30.414 3.14594 30.444 3.17201 30.469C3.29327 30.5931 3.42248 30.7087 3.55281 30.8237C3.60551 30.8707 3.65537 30.9212 3.70977 30.9665C3.81234 31.0526 3.92227 31.1303 4.02994 31.2107C4.11664 31.2759 4.19994 31.345 4.29061 31.4062C4.38128 31.4674 4.46571 31.5139 4.55297 31.5683C4.66177 31.6357 4.76774 31.7077 4.87994 31.7695C4.88731 31.7734 4.89524 31.7763 4.90204 31.7802C5.14549 31.9117 5.39617 32.0294 5.65287 32.1327C5.72371 32.1616 5.79511 32.1848 5.86651 32.2115C6.06428 32.2846 6.26318 32.3503 6.47058 32.407C6.55161 32.4291 6.63207 32.45 6.71368 32.4699C6.91994 32.5186 7.12904 32.5577 7.34097 32.5894C7.41634 32.6008 7.49057 32.6149 7.56764 32.6234C7.85282 32.6589 8.1399 32.6776 8.42727 32.6795C8.64317 32.6795 8.85907 32.6665 9.07498 32.6467C9.15487 32.6399 9.23421 32.6302 9.31354 32.6212C9.44331 32.6047 9.57251 32.5843 9.70114 32.5645C9.85641 32.5373 10.0094 32.5044 10.1607 32.4676C10.2684 32.4415 10.3766 32.4172 10.4837 32.386L10.5007 32.3803C10.7047 32.3203 10.9042 32.2494 11.1008 32.1724C11.128 32.1616 11.1575 32.1531 11.1841 32.1418C11.3887 32.059 11.5881 31.9655 11.7831 31.8652L11.8335 31.8409C12.0352 31.7347 12.231 31.6199 12.4206 31.4963C12.4313 31.4895 12.4421 31.4839 12.4529 31.4765C12.6382 31.3552 12.8161 31.2249 12.9895 31.0878C13.0054 31.0747 13.0229 31.0634 13.0388 31.0504C13.1946 30.9251 13.3425 30.7914 13.487 30.6537C13.5193 30.6237 13.5533 30.597 13.5851 30.5647C13.7024 30.4514 13.8117 30.3262 13.9217 30.2032C13.9749 30.1465 14.031 30.0899 14.082 30.027C14.1608 29.9323 14.2322 29.8315 14.3087 29.7329C14.3852 29.6343 14.456 29.5447 14.5235 29.4456C14.5728 29.373 14.6153 29.296 14.6623 29.2189C14.7377 29.0988 14.8176 28.9809 14.889 28.8557C14.8929 28.8483 14.8958 28.8404 14.8997 28.833C15.0311 28.59 15.1487 28.3397 15.2516 28.0833C15.2805 28.0125 15.3038 27.9405 15.3304 27.8691C15.406 27.6716 15.4712 27.4702 15.5259 27.265C15.548 27.184 15.569 27.1041 15.5888 27.0225C15.6375 26.8162 15.6766 26.6066 15.7084 26.3941C15.7197 26.3193 15.7339 26.2456 15.7424 26.1702C15.7762 25.8857 15.7934 25.5994 15.7939 25.3129C15.7939 25.097 15.7809 24.8811 15.7611 24.6652ZM11.8505 22.6637C11.876 22.6314 11.897 22.5963 11.9208 22.5628C11.9604 22.5062 12.0018 22.454 12.0341 22.3962C12.0585 22.3571 12.0783 22.3152 12.1004 22.2744C12.1304 22.2177 12.1622 22.1673 12.1882 22.1112C12.2086 22.0676 12.2245 22.0222 12.2421 21.978C12.2653 21.9214 12.2897 21.8675 12.3089 21.808C12.3242 21.7633 12.3344 21.7162 12.3475 21.6703C12.3639 21.6137 12.382 21.557 12.3951 21.4958C12.4053 21.4488 12.4104 21.4012 12.4177 21.3541C12.4279 21.2946 12.4393 21.2357 12.4449 21.1756C12.4495 21.1269 12.4495 21.0787 12.4517 21.03C12.4546 20.9699 12.4591 20.9104 12.458 20.8498C12.458 20.8011 12.4512 20.7518 12.4478 20.7025C12.4444 20.6532 12.4438 20.5993 12.437 20.5478C12.454 20.5619 12.4693 20.5778 12.4857 20.5925C12.6628 20.7455 12.8309 20.9085 12.9895 21.0804C13.0218 21.115 13.053 21.1496 13.0841 21.1847C13.4372 21.5826 13.7384 22.0236 13.9806 22.4971C13.9931 22.522 14.0044 22.5475 14.0169 22.5725C14.1272 22.796 14.2236 23.0262 14.3059 23.2615C14.3121 23.2768 14.3206 23.2916 14.3234 23.3074L14.3223 23.3148L13.7539 24.0662C13.432 24.4933 12.9287 24.7449 12.3939 24.7462H10.0309C10.0213 24.719 10.0088 24.6935 9.99807 24.6669L9.98674 24.6397C9.97824 24.6198 9.97144 24.5994 9.96181 24.5796L11.6329 22.9085C11.71 22.8312 11.7827 22.7494 11.8505 22.6637ZM8.30034 19.0858C8.46241 19.0824 8.62391 19.0858 8.78484 19.0977C8.86588 19.1022 8.94804 19.1022 9.02851 19.1101C9.25525 19.1313 9.48057 19.1654 9.70341 19.2121C9.76347 19.2246 9.82127 19.2433 9.88077 19.2575C10.0508 19.2988 10.2208 19.3442 10.3862 19.3997C10.4627 19.4252 10.537 19.4564 10.6129 19.4824C10.7599 19.5376 10.9047 19.5983 11.0475 19.6643C11.0917 19.6847 11.1354 19.7063 11.1796 19.7278L11.3133 20.6651C11.3878 21.1946 11.21 21.7284 10.8328 22.1072L9.16167 23.7783C9.14184 23.7687 9.12144 23.7619 9.10161 23.7534L9.07441 23.7421C9.04778 23.7313 9.02227 23.7188 8.99508 23.7092V21.0459C8.99359 20.8806 8.97765 20.7159 8.94747 20.5534C8.93954 20.5081 8.92934 20.4633 8.91914 20.4186C8.89145 20.2953 8.85546 20.1738 8.81147 20.0553C8.79787 20.0185 8.78711 19.9817 8.77237 19.946C8.7111 19.7998 8.63772 19.659 8.55307 19.5249C8.53494 19.4972 8.51341 19.4717 8.49641 19.4439C8.42338 19.3378 8.34312 19.2369 8.25614 19.1419C8.24141 19.1254 8.23007 19.1056 8.21477 19.0892C8.24141 19.0892 8.27087 19.0863 8.30034 19.0858ZM3.70411 21.2567V21.2578C3.86965 21.0666 4.04659 20.8854 4.23394 20.7155C4.26341 20.6889 4.29061 20.6588 4.32177 20.6356C4.75152 20.259 5.23064 19.9427 5.74581 19.6955L5.77244 19.683C6.03778 19.557 6.31177 19.4502 6.59241 19.3634L6.92107 19.5278C7.49822 19.8137 7.86259 20.4029 7.86061 21.047V23.7103C7.83341 23.72 7.80791 23.7324 7.78128 23.7432L7.75408 23.7545C7.73424 23.763 7.71384 23.7698 7.69401 23.7795L6.02291 22.1084C5.90072 21.989 5.76798 21.8809 5.62624 21.7854C5.60414 21.7701 5.58261 21.7542 5.55994 21.7395C5.42338 21.6516 5.27944 21.5759 5.12984 21.5128C5.10434 21.502 5.07884 21.4924 5.05277 21.4822C4.89765 21.42 4.7375 21.3715 4.57394 21.3371L4.54731 21.3332C4.38489 21.3029 4.22013 21.2868 4.05487 21.285C4.04127 21.285 4.02768 21.2805 4.01351 21.2805C3.99934 21.2805 3.99481 21.2805 3.98574 21.2805C3.91264 21.2805 3.83954 21.2873 3.76644 21.2941C3.73187 21.2941 3.69731 21.2941 3.66274 21.3009C3.67747 21.285 3.69108 21.2714 3.70411 21.2567ZM2.32031 25.7305V25.7345C2.28744 25.7724 2.25174 25.8087 2.22114 25.8478C2.20584 25.6687 2.19394 25.4925 2.19394 25.3129C2.19458 25.0856 2.20761 24.8587 2.23304 24.6329C2.23927 24.5762 2.25117 24.5195 2.25854 24.4663C2.28234 24.2963 2.30897 24.1263 2.34637 23.9625C2.36111 23.8945 2.38094 23.8288 2.39794 23.7613C2.43648 23.6123 2.47897 23.4644 2.52827 23.3182C2.55377 23.2423 2.58211 23.1675 2.61101 23.0915C2.66087 22.9606 2.71584 22.8314 2.77477 22.7039C2.79631 22.6569 2.81954 22.6099 2.84221 22.5634L3.77947 22.4297C4.30895 22.3546 4.84304 22.5325 5.22164 22.9102L6.89274 24.5813C6.88367 24.6006 6.87687 24.621 6.86837 24.638L6.85591 24.6674C6.84514 24.6935 6.83267 24.719 6.82361 24.7456H4.46061C4.35117 24.7458 4.2418 24.7522 4.13307 24.7649C4.09511 24.7694 4.05827 24.7791 4.01974 24.7847C3.95004 24.7961 3.87977 24.8057 3.81121 24.8221C3.76871 24.8323 3.72734 24.8471 3.68484 24.8595C3.62308 24.8771 3.56074 24.893 3.50067 24.9162C3.45704 24.9321 3.41511 24.9525 3.37261 24.9729C3.31594 24.9967 3.25928 25.0182 3.20261 25.046C3.15898 25.0675 3.11817 25.0936 3.07567 25.1174C3.02411 25.1463 2.97141 25.174 2.92154 25.2058C2.87167 25.2375 2.84051 25.2624 2.79971 25.2936C2.75891 25.3248 2.70451 25.3599 2.65917 25.3973C2.61384 25.4347 2.58494 25.4647 2.54584 25.4987C2.50674 25.5327 2.45857 25.5764 2.41834 25.6183C2.37811 25.6602 2.35374 25.692 2.32031 25.7305ZM5.00347 27.9626V27.9666C4.98251 27.9932 4.96551 28.0232 4.94681 28.0493C4.90261 28.1099 4.85728 28.17 4.81817 28.234C4.79721 28.2675 4.78077 28.3037 4.76151 28.3383C4.72808 28.395 4.69294 28.4573 4.66404 28.5191C4.64534 28.5587 4.63174 28.5995 4.61531 28.6398C4.59037 28.6993 4.56431 28.7588 4.54334 28.82C4.52917 28.8625 4.51954 28.9061 4.50764 28.9492C4.49007 29.0098 4.47081 29.0699 4.45778 29.1322C4.44814 29.1775 4.44304 29.2234 4.43567 29.2693C4.42547 29.33 4.41414 29.3906 4.40791 29.4524C4.40337 29.5 4.40337 29.5481 4.40111 29.5963C4.40111 29.6569 4.39374 29.717 4.39488 29.7771C4.39488 29.8269 4.40167 29.8762 4.40508 29.9261C4.40847 29.976 4.40904 30.0287 4.41584 30.0797C4.40054 30.0666 4.38637 30.0525 4.37164 30.0394C4.19243 29.8841 4.02215 29.7188 3.86164 29.5442C3.83104 29.5113 3.80044 29.4779 3.77041 29.4444C3.41794 29.0461 3.11711 28.605 2.87507 28.1315C2.86261 28.1077 2.85127 28.0827 2.83937 28.0584C2.72909 27.8343 2.63233 27.6038 2.54981 27.3682C2.54414 27.3529 2.53791 27.3381 2.53281 27.3223L3.10061 26.5595C3.42269 26.1326 3.92589 25.881 4.46061 25.8795H6.82361C6.83267 25.9062 6.84514 25.9317 6.85591 25.9577L6.86837 25.9872C6.87687 26.0065 6.88367 26.0269 6.89274 26.0439L5.22164 27.715C5.14422 27.7933 5.0714 27.876 5.00347 27.9626ZM8.85794 31.5241L8.85681 31.5281C8.64806 31.5431 8.43868 31.5471 8.22951 31.54C8.15017 31.54 8.07028 31.5337 7.99151 31.5281C7.78864 31.5141 7.58691 31.4901 7.38631 31.4561C7.33644 31.4476 7.28544 31.4431 7.23614 31.4334C6.98688 31.3847 6.74087 31.3207 6.49947 31.2419C6.44904 31.2255 6.40088 31.2051 6.35101 31.1852C6.1621 31.118 5.97587 31.0415 5.79227 30.9557C5.75261 30.9376 5.71407 30.9189 5.67497 30.8991L5.54238 29.9595C5.46779 29.4301 5.64565 28.8963 6.02291 28.5174L7.69401 26.8463C7.71384 26.8559 7.73424 26.8627 7.75464 26.8718L7.78128 26.8825C7.80734 26.8933 7.83341 26.9058 7.86061 26.9154V29.2795C7.86075 29.389 7.8672 29.4983 7.87988 29.6071C7.88441 29.6456 7.89404 29.6824 7.89971 29.7204C7.91104 29.7901 7.92067 29.8598 7.93711 29.9284C7.94731 29.972 7.96261 30.0139 7.97507 30.057C7.99264 30.1182 8.00851 30.1794 8.03174 30.2395C8.04761 30.2831 8.06857 30.325 8.08841 30.3687C8.11221 30.4253 8.13431 30.482 8.16151 30.5387C8.18304 30.5823 8.20911 30.6231 8.23291 30.6656C8.26181 30.7172 8.28957 30.7704 8.32131 30.8203C8.35304 30.8702 8.37797 30.9019 8.40971 30.9427C8.44144 30.9835 8.47601 31.0373 8.51227 31.0821C8.54854 31.1269 8.58084 31.1575 8.61541 31.1954C8.64998 31.2334 8.69191 31.2821 8.73384 31.3224C8.77578 31.3626 8.81034 31.3892 8.84717 31.4227C8.88401 31.4561 8.92141 31.4907 8.96051 31.5213C8.92594 31.5218 8.89138 31.5218 8.85794 31.5241ZM8.94974 25.5333C8.93019 25.5699 8.90703 25.6045 8.88061 25.6364C8.84434 25.6869 8.80014 25.7311 8.74971 25.7673C8.71776 25.7938 8.6832 25.8169 8.64657 25.8365C8.50632 25.8953 8.34823 25.8953 8.20798 25.8365C8.17135 25.8169 8.13679 25.7938 8.10484 25.7673C8.0583 25.7344 8.01722 25.6945 7.98301 25.6489C7.95248 25.6144 7.92627 25.5764 7.90481 25.5356C7.84595 25.3953 7.84595 25.2372 7.90481 25.097C7.92585 25.0543 7.95212 25.0142 7.98301 24.978V24.9791C8.01722 24.9336 8.0583 24.8936 8.10484 24.8607C8.13679 24.8343 8.17135 24.8111 8.20798 24.7915C8.34823 24.7327 8.50632 24.7327 8.64657 24.7915C8.6832 24.8111 8.71776 24.8343 8.74971 24.8607C8.80014 24.8969 8.84434 24.9411 8.88061 24.9916C8.90703 25.0235 8.93019 25.0581 8.94974 25.0947C9.0086 25.235 9.0086 25.3931 8.94974 25.5333ZM13.1453 29.3742L13.1442 29.3781C12.9912 29.5552 12.8283 29.7233 12.6563 29.8819C12.6217 29.9142 12.5872 29.9454 12.552 29.9765C12.1548 30.327 11.715 30.6259 11.243 30.8662L11.1677 30.9025C10.9441 31.0128 10.714 31.1092 10.4786 31.1915C10.4633 31.1971 10.4486 31.2034 10.4327 31.2085L9.67394 30.6395C9.24689 30.3176 8.99529 29.8143 8.99394 29.2795V26.9165C9.02114 26.9069 9.04664 26.8944 9.07327 26.8837L9.10047 26.8723C9.12031 26.8638 9.14071 26.857 9.16054 26.8474L10.8316 28.5185C10.9538 28.6383 11.0866 28.7467 11.2283 28.8426L11.2906 28.8863C11.4272 28.9741 11.5711 29.0499 11.7207 29.1129C11.7468 29.1243 11.7723 29.1345 11.7984 29.1447C11.9515 29.2057 12.1096 29.2535 12.271 29.2875C12.2874 29.2909 12.3044 29.2926 12.3208 29.2954C12.4845 29.3266 12.6506 29.3431 12.8172 29.3447C12.8252 29.3447 12.8325 29.3447 12.8399 29.3447H12.8501C12.9638 29.3446 13.0773 29.3373 13.1901 29.3232C13.1759 29.3424 13.1601 29.3577 13.1453 29.3742ZM14.6204 25.9997C14.6141 26.0563 14.6022 26.113 14.5943 26.1697C14.5711 26.3397 14.5444 26.5046 14.5076 26.6695C14.4923 26.7386 14.4725 26.806 14.4549 26.874C14.4164 27.0219 14.375 27.1687 14.3257 27.3132C14.2996 27.3903 14.269 27.4662 14.2418 27.5399C14.192 27.6702 14.1376 27.7983 14.0792 27.9252C14.0571 27.9728 14.0339 28.0193 14.0112 28.0663L13.0739 28.2C12.5445 28.2742 12.0109 28.0964 11.6318 27.7195L9.96068 26.0484C9.97031 26.0286 9.97711 26.0082 9.98561 25.9883L9.99694 25.9611C10.0077 25.9345 10.0202 25.909 10.0298 25.8818H12.3939C12.5034 25.8817 12.6127 25.8752 12.7215 25.8625C12.76 25.858 12.7968 25.8484 12.8348 25.8427C12.9045 25.8314 12.9742 25.8217 13.0428 25.8053C13.0864 25.7951 13.1283 25.7798 13.1714 25.7673C13.2326 25.7498 13.2938 25.7339 13.3539 25.7107C13.3975 25.6948 13.4394 25.6738 13.4831 25.654C13.5397 25.6302 13.5964 25.6081 13.6531 25.5809C13.6967 25.5594 13.7375 25.5333 13.78 25.5095C13.8316 25.4806 13.8848 25.4528 13.9347 25.4211C13.9846 25.3894 14.0163 25.3644 14.0571 25.3327C14.0979 25.301 14.1517 25.2664 14.1965 25.2301C14.2413 25.1939 14.2719 25.1616 14.3098 25.127C14.3478 25.0924 14.3965 25.0505 14.4368 25.0086C14.477 24.9666 14.5014 24.9338 14.5348 24.8952L14.5337 24.9015C14.5665 24.8629 14.6017 24.8272 14.6323 24.7881C14.6476 24.9638 14.6595 25.14 14.6595 25.3197C14.6588 25.5469 14.6458 25.7739 14.6204 25.9997Z" fill="#5C6D7D"/>
<path d="M5.20306 18.213L5.76562 17.4884L8.47086 19.5886L7.9083 20.3132L5.20306 18.213Z" fill="#5C6D7D"/>
<path d="M8.5929 30.9891L9.15546 30.2645L11.8607 32.3647L11.2981 33.0894L8.5929 30.9891Z" fill="#5C6D7D"/>
<path d="M11.1814 17.9316L12.0916 17.8171L12.5194 21.215L11.6093 21.3296L11.1814 17.9316Z" fill="#5C6D7D"/>
<path d="M4.54432 29.3627L5.45449 29.2481L5.88231 32.6461L4.97214 32.7607L4.54432 29.3627Z" fill="#5C6D7D"/>
<path d="M1.17465 22.6393L1.06006 21.7291L4.45803 21.3013L4.57262 22.2115L1.17465 22.6393Z" fill="#5C6D7D"/>
<path d="M12.6057 29.2764L12.4911 28.3663L15.8891 27.9384L16.0037 28.8486L12.6057 29.2764Z" fill="#5C6D7D"/>
<path d="M1.45601 28.6177L0.731389 28.0551L2.8316 25.3499L3.55622 25.9125L1.45601 28.6177Z" fill="#5C6D7D"/>
<path d="M14.2322 25.2279L13.5075 24.6653L15.6077 21.9601L16.3324 22.5226L14.2322 25.2279Z" fill="#5C6D7D"/>
<path d="M7.69677 17.2441L8.49338 16.7286L10.4178 19.7026L9.62123 20.2181L7.69677 17.2441Z" fill="#E67861"/>
<path d="M6.64555 30.8756L7.44216 30.3601L9.36662 33.3341L8.57001 33.8496L6.64555 30.8756Z" fill="#E67861"/>
<path d="M13.63 19.0101L14.5578 19.2088L13.8156 22.6726L12.8878 22.4738L13.63 19.0101Z" fill="#E67861"/>
<path d="M3.24776 27.9056L4.17555 28.1044L3.4334 31.5682L2.50562 31.3694L3.24776 27.9056Z" fill="#E67861"/>
<path d="M2.25264 20.1908L2.45143 19.263L5.91517 20.0052L5.71638 20.933L2.25264 20.1908Z" fill="#E67861"/>
<path d="M11.1482 30.5731L11.347 29.6453L14.8107 30.3874L14.612 31.3152L11.1482 30.5731Z" fill="#E67861"/>
<path d="M0.486696 26.1241L-0.0287833 25.3274L2.94522 23.403L3.4607 24.1996L0.486696 26.1241Z" fill="#E67861"/>
<path d="M14.1182 27.1753L13.6027 26.3787L16.5767 24.4542L17.0922 25.2508L14.1182 27.1753Z" fill="#E67861"/>
<path d="M32.7743 7.95912C32.7675 7.87922 32.7579 7.79989 32.7488 7.72056C32.7324 7.59079 32.712 7.46159 32.6921 7.33296C32.6649 7.17769 32.6321 7.02469 32.5952 6.87339C32.5692 6.76516 32.5442 6.65692 32.5131 6.54926L32.5074 6.53226C32.4473 6.32826 32.3765 6.12879 32.2994 5.93216C32.2887 5.90496 32.2802 5.87549 32.2688 5.84886C32.1855 5.64372 32.092 5.44426 31.9912 5.24819C31.9832 5.23232 31.9764 5.21532 31.9679 5.19946C31.8614 4.99659 31.7458 4.80279 31.6217 4.60899C31.6155 4.59992 31.6104 4.59029 31.6041 4.58066C31.4812 4.39366 31.3497 4.21346 31.2109 4.03836C31.1967 4.02306 31.1871 4.00776 31.1757 3.99416C31.0477 3.83549 30.9117 3.68419 30.7717 3.53686C30.7439 3.50796 30.719 3.47679 30.6907 3.44846C30.5717 3.32719 30.4453 3.21386 30.3178 3.10109C30.2611 3.05179 30.2101 2.99909 30.1529 2.95092C30.0532 2.86762 29.9472 2.79282 29.8435 2.71462C29.7528 2.64662 29.6656 2.57522 29.5721 2.51176C29.4899 2.45509 29.4021 2.40749 29.3188 2.35536C29.2054 2.28566 29.0989 2.21199 28.9839 2.14909C28.9754 2.14399 28.9663 2.14059 28.9578 2.13606C28.9125 2.11112 28.8637 2.09129 28.8178 2.06749C28.6558 1.98362 28.4926 1.90146 28.3248 1.83006C28.254 1.79946 28.1792 1.77339 28.1067 1.74732C27.9593 1.69066 27.8131 1.63399 27.6624 1.58469C27.5768 1.55749 27.4884 1.53766 27.4012 1.51386C27.2601 1.47476 27.1178 1.43452 26.975 1.40392C26.8776 1.38296 26.7778 1.36992 26.6792 1.35292C26.5432 1.33026 26.4078 1.30589 26.2707 1.29059C26.1573 1.27756 26.04 1.27302 25.9244 1.26509C25.8088 1.25716 25.6825 1.24866 25.5601 1.24696C25.5204 1.24696 25.4813 1.24072 25.4411 1.24072C25.3334 1.24072 25.228 1.25206 25.1215 1.25716C25.0365 1.26112 24.9515 1.26282 24.8659 1.26962C24.6778 1.28436 24.493 1.30816 24.3094 1.33706C24.2681 1.34329 24.2267 1.34839 24.1848 1.35576C23.9709 1.39351 23.7606 1.43998 23.5535 1.49516C23.5399 1.49856 23.5263 1.50026 23.5133 1.50366L23.4934 1.50989C23.2721 1.57109 23.0552 1.64214 22.8429 1.72296L22.7862 1.74222C22.574 1.82496 22.3661 1.91697 22.1629 2.01819C22.1453 2.02726 22.1278 2.03462 22.1108 2.04369C21.9119 2.14456 21.7192 2.25506 21.5316 2.37292C21.5101 2.38652 21.4886 2.39842 21.4676 2.41202C21.2908 2.52536 21.1203 2.64776 20.9542 2.77582C20.9236 2.79962 20.8913 2.82116 20.8613 2.84552C20.7128 2.96339 20.5712 3.08919 20.4329 3.21782C20.3887 3.25862 20.3434 3.29659 20.3009 3.33796C20.1841 3.45129 20.0742 3.57256 19.9648 3.69382C19.9082 3.75729 19.8515 3.81736 19.7948 3.88196C19.7076 3.98622 19.6248 4.09672 19.5461 4.20552C19.4803 4.29279 19.4112 4.37552 19.3494 4.46846C19.2809 4.56819 19.2214 4.67416 19.1579 4.77786C19.0944 4.88156 19.0355 4.96486 18.9817 5.06119C18.9777 5.06856 18.9749 5.07649 18.9709 5.08329C18.8394 5.32674 18.7217 5.57742 18.6184 5.83412C18.5895 5.90496 18.5663 5.97636 18.5397 6.04776C18.4666 6.24552 18.4008 6.44442 18.3442 6.65182C18.3221 6.73286 18.3011 6.81332 18.2813 6.89492C18.2325 7.10119 18.1934 7.31029 18.1617 7.52222C18.1504 7.59759 18.1362 7.67182 18.1277 7.74889C18.093 8.03357 18.0751 8.32002 18.0739 8.60682C18.0739 8.82272 18.0869 9.03862 18.1067 9.25452C18.1135 9.33442 18.1232 9.41376 18.1322 9.49309C18.1487 9.62286 18.1691 9.75206 18.1889 9.88069C18.2161 10.036 18.249 10.189 18.2858 10.3403C18.3119 10.4485 18.3368 10.5567 18.368 10.6644L18.3736 10.6814C18.4343 10.886 18.5051 11.086 18.5822 11.2826C18.5924 11.3098 18.6009 11.3393 18.6116 11.3642C18.6955 11.5705 18.7896 11.7717 18.891 11.9683C18.8989 11.983 18.9052 11.9983 18.9125 12.0131C19.0202 12.2178 19.1367 12.4163 19.2622 12.6086C19.2673 12.6166 19.2712 12.6245 19.2763 12.6319C19.4004 12.8211 19.5336 13.0036 19.673 13.181C19.6826 13.1929 19.6911 13.2053 19.7008 13.2172C19.83 13.3782 19.9682 13.5317 20.111 13.6813C20.136 13.708 20.1592 13.738 20.1853 13.7629C20.3065 13.887 20.4357 14.0026 20.5661 14.1177C20.6188 14.1647 20.6686 14.2151 20.723 14.2605C20.8256 14.3466 20.9355 14.4242 21.0432 14.5047C21.1299 14.5699 21.2132 14.639 21.3039 14.7002C21.3945 14.7614 21.479 14.8079 21.5662 14.8623C21.675 14.9297 21.781 15.0017 21.8932 15.0634C21.9005 15.0674 21.9085 15.0702 21.9153 15.0742C22.1587 15.2057 22.4094 15.3234 22.6661 15.4267C22.7369 15.4556 22.8083 15.4788 22.8797 15.5054C23.0775 15.5785 23.2764 15.6443 23.4838 15.7009C23.5648 15.723 23.6453 15.744 23.7269 15.7638C23.9332 15.8126 24.1423 15.8517 24.3542 15.8834C24.4296 15.8947 24.5038 15.9089 24.5809 15.9174C24.8661 15.9528 25.1531 15.9716 25.4405 15.9735C25.6564 15.9735 25.8723 15.9605 26.0882 15.9406C26.1681 15.9338 26.2474 15.9242 26.3268 15.9151C26.4565 15.8987 26.5857 15.8783 26.7144 15.8585C26.8696 15.8313 27.0226 15.7984 27.1739 15.7616C27.2816 15.7355 27.3898 15.7111 27.4969 15.68L27.5139 15.6743C27.7179 15.6142 27.9174 15.5434 28.114 15.4663C28.1412 15.4556 28.1707 15.4471 28.1973 15.4357C28.4019 15.353 28.6014 15.2595 28.7963 15.1592L28.8467 15.1348C29.0485 15.0286 29.2442 14.9138 29.4338 14.7903C29.4446 14.7835 29.4553 14.7778 29.4661 14.7705C29.6514 14.6492 29.8293 14.5189 30.0027 14.3817C30.0186 14.3687 30.0362 14.3574 30.052 14.3443C30.2079 14.2191 30.3558 14.0854 30.5003 13.9477C30.5326 13.9176 30.5666 13.891 30.5983 13.8587C30.7156 13.7454 30.825 13.6201 30.9349 13.4972C30.9882 13.4405 31.0443 13.3838 31.0953 13.3209C31.174 13.2263 31.2454 13.1254 31.3219 13.0268C31.3984 12.9282 31.4693 12.8387 31.5367 12.7395C31.586 12.667 31.6285 12.5899 31.6755 12.5129C31.7509 12.3927 31.8308 12.2749 31.9022 12.1496C31.9062 12.1423 31.909 12.1343 31.913 12.127C32.0444 11.8839 32.1619 11.6336 32.2649 11.3773C32.2938 11.3064 32.317 11.2345 32.3436 11.1631C32.4192 10.9655 32.4844 10.7641 32.5391 10.559C32.5612 10.478 32.5822 10.3981 32.602 10.3165C32.6508 10.1102 32.6899 9.90052 32.7216 9.68802C32.7329 9.61322 32.7471 9.53956 32.7556 9.46419C32.7895 9.17965 32.8067 8.89334 32.8072 8.60682C32.8072 8.39092 32.7941 8.17502 32.7743 7.95912ZM28.8637 5.95766C28.8892 5.92536 28.9102 5.89022 28.934 5.85679C28.9737 5.80012 29.015 5.74799 29.0473 5.69019C29.0717 5.65109 29.0915 5.60916 29.1136 5.56836C29.1437 5.51169 29.1754 5.46126 29.2015 5.40516C29.2219 5.36152 29.2377 5.31619 29.2553 5.27199C29.2785 5.21532 29.3029 5.16149 29.3222 5.10199C29.3375 5.05722 29.3477 5.01019 29.3607 4.96429C29.3771 4.90762 29.3953 4.85096 29.4083 4.78976C29.4185 4.74272 29.4236 4.69512 29.431 4.64809C29.4412 4.58859 29.4525 4.52966 29.4582 4.46959C29.4627 4.42086 29.4627 4.37269 29.465 4.32396C29.4678 4.26389 29.4723 4.20439 29.4712 4.14376C29.4712 4.09502 29.4644 4.04572 29.461 3.99642C29.4576 3.94712 29.457 3.89329 29.4502 3.84172C29.4672 3.85589 29.4825 3.87176 29.499 3.88649C29.676 4.03949 29.8441 4.20241 30.0027 4.37439C30.035 4.40896 30.0662 4.44352 30.0974 4.47866C30.4504 4.87653 30.7516 5.31754 30.9938 5.79106C31.0063 5.81599 31.0176 5.84149 31.0301 5.86642C31.1404 6.08997 31.2369 6.32011 31.3191 6.55549C31.3253 6.57079 31.3338 6.58552 31.3367 6.60139L31.3355 6.60876L30.7672 7.36016C30.4452 7.78721 29.942 8.03881 29.4072 8.04016H27.0442C27.0345 8.01296 27.0221 7.98746 27.0113 7.96082L27 7.93362C26.9915 7.91379 26.9847 7.89339 26.975 7.87356L28.6461 6.20246C28.7233 6.12511 28.796 6.04337 28.8637 5.95766ZM25.3136 2.37972C25.4756 2.37632 25.6371 2.37972 25.7981 2.39162C25.8791 2.39616 25.9613 2.39616 26.0417 2.40409C26.2685 2.42527 26.4938 2.45934 26.7166 2.50609C26.7767 2.51856 26.8345 2.53726 26.894 2.55142C27.064 2.59279 27.234 2.63812 27.3995 2.69366C27.476 2.71916 27.5502 2.75032 27.6261 2.77639C27.7731 2.83157 27.918 2.8922 28.0608 2.95829C28.105 2.97869 28.1486 3.00022 28.1928 3.02176L28.3265 3.95902C28.4011 4.4885 28.2233 5.0223 27.846 5.40119L26.1749 7.07229C26.1551 7.06266 26.1347 7.05586 26.1148 7.04736L26.0876 7.03602C26.061 7.02526 26.0355 7.01279 26.0083 7.00316V4.33982C26.0068 4.17457 25.9909 4.00981 25.9607 3.84739C25.9528 3.80206 25.9426 3.75729 25.9324 3.71252C25.9047 3.5892 25.8687 3.46779 25.8247 3.34929C25.8111 3.31246 25.8003 3.27562 25.7856 3.23992C25.7243 3.09372 25.651 2.95291 25.5663 2.81889C25.5482 2.79112 25.5266 2.76562 25.5096 2.73786C25.4366 2.63175 25.3564 2.53081 25.2694 2.43582C25.2546 2.41939 25.2433 2.39956 25.228 2.38312C25.2546 2.38312 25.2841 2.38029 25.3136 2.37972ZM20.7174 4.55062V4.55176C20.8829 4.36051 21.0598 4.17939 21.2472 4.00946C21.2767 3.98282 21.3038 3.95279 21.335 3.92956C21.7648 3.55294 22.2439 3.23666 22.759 2.98946L22.7857 2.97699C23.051 2.85098 23.325 2.74416 23.6056 2.65739L23.9343 2.82172C24.5115 3.10768 24.8758 3.69687 24.8738 4.34096V7.00429C24.8466 7.01392 24.8211 7.02639 24.7945 7.03716L24.7673 7.04849C24.7475 7.05699 24.7271 7.06379 24.7072 7.07342L23.0361 5.40232C22.914 5.2829 22.7812 5.17481 22.6395 5.07932C22.6174 5.06402 22.5958 5.04816 22.5732 5.03342C22.4366 4.94559 22.2927 4.8698 22.1431 4.80676C22.1176 4.79599 22.0921 4.78636 22.066 4.77616C21.9109 4.71396 21.7507 4.66544 21.5872 4.63109L21.5605 4.62712C21.3981 4.59688 21.2334 4.58073 21.0681 4.57896C21.0545 4.57896 21.0409 4.57442 21.0268 4.57442C21.0126 4.57442 21.0081 4.57442 20.999 4.57442C20.9259 4.57442 20.8528 4.58122 20.7797 4.58802C20.7451 4.58802 20.7106 4.58802 20.676 4.59482C20.6907 4.57896 20.7043 4.56536 20.7174 4.55062ZM19.3336 9.02446V9.02842C19.3007 9.06639 19.265 9.10266 19.2344 9.14176C19.2191 8.96269 19.2072 8.78646 19.2072 8.60682C19.2078 8.37959 19.2209 8.15264 19.2463 7.92682C19.2525 7.87016 19.2644 7.81349 19.2718 7.76022C19.2956 7.59022 19.3222 7.42022 19.3596 7.25646C19.3744 7.18846 19.3942 7.12272 19.4112 7.05529C19.4497 6.90626 19.4922 6.75836 19.5415 6.61216C19.567 6.53622 19.5954 6.46142 19.6243 6.38549C19.6741 6.25459 19.7291 6.12539 19.788 5.99789C19.8096 5.95086 19.8328 5.90382 19.8555 5.85736L20.7927 5.72362C21.3222 5.64854 21.8563 5.82647 22.2349 6.20416L23.906 7.87526C23.8969 7.89452 23.8901 7.91492 23.8816 7.93192L23.8691 7.96139C23.8584 7.98746 23.8459 8.01296 23.8368 8.03959H21.4739C21.3644 8.03973 21.255 8.04618 21.1463 8.05886C21.1084 8.06339 21.0715 8.07302 21.033 8.07869C20.9633 8.09002 20.893 8.09966 20.8245 8.11609C20.782 8.12629 20.7406 8.14102 20.6981 8.15349C20.6363 8.17106 20.574 8.18692 20.5139 8.21016C20.4703 8.22602 20.4284 8.24642 20.3859 8.26682C20.3292 8.29062 20.2725 8.31216 20.2159 8.33992C20.1722 8.36146 20.1314 8.38752 20.0889 8.41132C20.0374 8.44022 19.9847 8.46799 19.9348 8.49972C19.8849 8.53146 19.8538 8.55639 19.813 8.58756C19.7722 8.61872 19.7178 8.65386 19.6724 8.69126C19.6271 8.72866 19.5982 8.75869 19.5591 8.79269C19.52 8.82669 19.4718 8.87032 19.4316 8.91226C19.3914 8.95419 19.367 8.98592 19.3336 9.02446ZM22.0167 11.2566V11.2605C21.9957 11.2872 21.9787 11.3172 21.96 11.3433C21.9158 11.4039 21.8705 11.464 21.8314 11.528C21.8104 11.5614 21.794 11.5977 21.7747 11.6323C21.7413 11.6889 21.7062 11.7513 21.6773 11.813C21.6586 11.8527 21.645 11.8935 21.6286 11.9337C21.6036 11.9932 21.5775 12.0527 21.5566 12.1139C21.5424 12.1564 21.5328 12.2001 21.5209 12.2431C21.5033 12.3038 21.4841 12.3638 21.471 12.4262C21.4614 12.4715 21.4563 12.5174 21.4489 12.5633C21.4387 12.6239 21.4274 12.6846 21.4211 12.7463C21.4166 12.7939 21.4166 12.8421 21.4144 12.8903C21.4144 12.9509 21.407 13.011 21.4081 13.071C21.4081 13.1209 21.4149 13.1702 21.4183 13.2201C21.4217 13.2699 21.4223 13.3226 21.4291 13.3736C21.4138 13.3606 21.3996 13.3464 21.3849 13.3334C21.2057 13.1781 21.0354 13.0127 20.8749 12.8381C20.8443 12.8053 20.8137 12.7718 20.7837 12.7384C20.4312 12.3401 20.1304 11.8989 19.8883 11.4254C19.8759 11.4016 19.8645 11.3767 19.8526 11.3523C19.7423 11.1283 19.6456 10.8978 19.5631 10.6621C19.5574 10.6468 19.5512 10.6321 19.5461 10.6162L20.1139 9.85349C20.4359 9.42658 20.9391 9.17498 21.4739 9.17349H23.8368C23.8459 9.20012 23.8584 9.22562 23.8691 9.25169L23.8816 9.28116C23.8901 9.30042 23.8969 9.32082 23.906 9.33782L22.2349 11.0089C22.1575 11.0873 22.0846 11.1699 22.0167 11.2566ZM25.8712 14.8181L25.87 14.822C25.6613 14.837 25.4519 14.841 25.2427 14.8339C25.1634 14.8339 25.0835 14.8277 25.0047 14.822C24.8019 14.8081 24.6001 14.7841 24.3995 14.7501C24.3497 14.7416 24.2987 14.737 24.2494 14.7274C24.0001 14.6787 23.7541 14.6147 23.5127 14.5359C23.4623 14.5194 23.4141 14.499 23.3642 14.4792C23.1753 14.412 22.9891 14.3355 22.8055 14.2497C22.7658 14.2316 22.7273 14.2129 22.6882 14.193L22.5556 13.2535C22.481 12.724 22.6589 12.1902 23.0361 11.8113L24.7072 10.1402C24.7271 10.1499 24.7475 10.1567 24.7679 10.1657L24.7945 10.1765C24.8206 10.1873 24.8466 10.1997 24.8738 10.2094V12.5735C24.874 12.6829 24.8804 12.7923 24.8931 12.901C24.8976 12.9396 24.9073 12.9764 24.9129 13.0144C24.9243 13.0841 24.9339 13.1538 24.9503 13.2223C24.9605 13.266 24.9758 13.3079 24.9883 13.351C25.0059 13.4122 25.0217 13.4734 25.045 13.5334C25.0608 13.5771 25.0818 13.619 25.1016 13.6626C25.1254 13.7193 25.1475 13.776 25.1747 13.8326C25.1963 13.8763 25.2223 13.9171 25.2461 13.9596C25.275 14.0111 25.3028 14.0644 25.3345 14.1143C25.3663 14.1641 25.3912 14.1959 25.4229 14.2367C25.4547 14.2775 25.4892 14.3313 25.5255 14.3761C25.5618 14.4208 25.5941 14.4514 25.6286 14.4894C25.6632 14.5274 25.7051 14.5761 25.7471 14.6163C25.789 14.6566 25.8236 14.6832 25.8604 14.7166C25.8972 14.7501 25.9346 14.7846 25.9737 14.8152C25.9392 14.8158 25.9046 14.8158 25.8712 14.8181ZM25.963 8.82726C25.9434 8.86388 25.9203 8.89844 25.8938 8.93039C25.8576 8.98082 25.8134 9.02502 25.7629 9.06129C25.731 9.08771 25.6964 9.11087 25.6598 9.13042C25.5196 9.18929 25.3615 9.18929 25.2212 9.13042C25.1846 9.11087 25.15 9.08771 25.1181 9.06129C25.0715 9.02835 25.0305 8.9884 24.9962 8.94286C24.9657 8.90836 24.9395 8.87032 24.918 8.82952C24.8592 8.68927 24.8592 8.53117 24.918 8.39092C24.9391 8.34821 24.9654 8.30819 24.9962 8.27192V8.27306C25.0305 8.22751 25.0715 8.18756 25.1181 8.15462C25.15 8.1282 25.1846 8.10504 25.2212 8.08549C25.3615 8.02663 25.5196 8.02663 25.6598 8.08549C25.6964 8.10504 25.731 8.1282 25.7629 8.15462C25.8134 8.19089 25.8576 8.23509 25.8938 8.28552C25.9203 8.31747 25.9434 8.35204 25.963 8.38866C26.0218 8.52891 26.0218 8.68701 25.963 8.82726ZM30.1586 12.6681L30.1574 12.6721C30.0044 12.8491 29.8415 13.0173 29.6695 13.1759C29.635 13.2082 29.6004 13.2393 29.5653 13.2705C29.168 13.6209 28.7282 13.9198 28.2563 14.1602L28.1809 14.1964C27.9573 14.3067 27.7272 14.4032 27.4918 14.4854C27.4765 14.4911 27.4618 14.4973 27.4459 14.5024L26.6872 13.9335C26.2601 13.6116 26.0085 13.1083 26.0072 12.5735V10.2105C26.0344 10.2009 26.0599 10.1884 26.0865 10.1776L26.1137 10.1663C26.1335 10.1578 26.1539 10.151 26.1738 10.1414L27.8449 11.8125C27.9671 11.9322 28.0998 12.0407 28.2415 12.1366L28.3039 12.1802C28.4404 12.2681 28.5843 12.3439 28.734 12.4069C28.76 12.4182 28.7855 12.4284 28.8116 12.4386C28.9648 12.4997 29.1229 12.5475 29.2842 12.5814C29.3006 12.5848 29.3176 12.5865 29.3341 12.5894C29.4978 12.6205 29.6639 12.637 29.8305 12.6387C29.8384 12.6387 29.8458 12.6387 29.8531 12.6387H29.8633C29.977 12.6385 30.0906 12.6313 30.2033 12.6171C30.1892 12.6364 30.1733 12.6517 30.1586 12.6681ZM31.6336 9.29362C31.6274 9.35029 31.6155 9.40696 31.6075 9.46362C31.5843 9.63362 31.5577 9.79852 31.5208 9.96342C31.5055 10.0326 31.4857 10.1 31.4681 10.168C31.4296 10.3159 31.3882 10.4627 31.3389 10.6072C31.3129 10.6842 31.2823 10.7602 31.2551 10.8338C31.2052 10.9642 31.1508 11.0922 31.0924 11.2192C31.0703 11.2668 31.0471 11.3132 31.0244 11.3603L30.0872 11.494C29.5578 11.5682 29.0241 11.3904 28.645 11.0135L26.9739 9.34236C26.9835 9.32252 26.9903 9.30212 26.9988 9.28229L27.0102 9.25509C27.0209 9.22846 27.0334 9.20296 27.043 9.17576H29.4072C29.5166 9.17562 29.626 9.16917 29.7347 9.15649C29.7732 9.15196 29.8101 9.14232 29.848 9.13666C29.9177 9.12532 29.9874 9.11569 30.056 9.09926C30.0996 9.08906 30.1416 9.07376 30.1846 9.06129C30.2458 9.04372 30.307 9.02786 30.3671 9.00462C30.4107 8.98876 30.4527 8.96779 30.4963 8.94796C30.553 8.92416 30.6096 8.90206 30.6663 8.87486C30.7099 8.85332 30.7507 8.82726 30.7932 8.80346C30.8448 8.77456 30.8981 8.74679 30.9479 8.71506C30.9978 8.68332 31.0295 8.65839 31.0703 8.62666C31.1111 8.59492 31.165 8.56036 31.2097 8.52409C31.2545 8.48782 31.2851 8.45552 31.3231 8.42096C31.361 8.38639 31.4098 8.34446 31.45 8.30252C31.4902 8.26059 31.5146 8.22772 31.548 8.18919L31.5469 8.19542C31.5798 8.15689 31.6149 8.12119 31.6455 8.08209C31.6608 8.25776 31.6727 8.43399 31.6727 8.61362C31.6721 8.84086 31.659 9.06781 31.6336 9.29362Z" fill="#E67861"/>
<path d="M22.2163 1.50694L22.7789 0.782327L25.4841 2.88254L24.9215 3.60716L22.2163 1.50694Z" fill="#E67861"/>
<path d="M25.6061 14.2831L26.1687 13.5585L28.8739 15.6587L28.3114 16.3833L25.6061 14.2831Z" fill="#E67861"/>
<path d="M28.1947 1.2256L29.1048 1.11101L29.5327 4.50897L28.6225 4.62357L28.1947 1.2256Z" fill="#E67861"/>
<path d="M21.5576 12.6567L22.4677 12.5421L22.8955 15.94L21.9854 16.0546L21.5576 12.6567Z" fill="#E67861"/>
<path d="M18.1879 5.93325L18.0733 5.02308L21.4713 4.59527L21.5859 5.50544L18.1879 5.93325Z" fill="#E67861"/>
<path d="M29.6189 12.5704L29.5044 11.6602L32.9023 11.2324L33.0169 12.1426L29.6189 12.5704Z" fill="#E67861"/>
<path d="M18.4692 11.9116L17.7446 11.3491L19.8448 8.64385L20.5695 9.20641L18.4692 11.9116Z" fill="#E67861"/>
<path d="M31.2454 8.52181L30.5208 7.95925L32.621 5.25402L33.3456 5.81657L31.2454 8.52181Z" fill="#E67861"/>
<path d="M24.71 0.53806L25.5066 0.02258L27.4311 2.99659L26.6345 3.51207L24.71 0.53806Z" fill="#5C6D7D"/>
<path d="M23.6588 14.1695L24.4554 13.654L26.3799 16.6281L25.5833 17.1435L23.6588 14.1695Z" fill="#5C6D7D"/>
<path d="M30.6432 2.30401L31.571 2.5028L30.8289 5.96654L29.9011 5.76775L30.6432 2.30401Z" fill="#5C6D7D"/>
<path d="M20.261 11.1996L21.1888 11.3984L20.4467 14.8621L19.5189 14.6633L20.261 11.1996Z" fill="#5C6D7D"/>
<path d="M19.2659 3.48477L19.4647 2.55698L22.9284 3.29913L22.7296 4.22692L19.2659 3.48477Z" fill="#5C6D7D"/>
<path d="M28.1615 13.867L28.3603 12.9392L31.824 13.6814L31.6252 14.6091L28.1615 13.867Z" fill="#5C6D7D"/>
<path d="M17.4999 9.418L16.9845 8.62139L19.9585 6.69693L20.474 7.49354L17.4999 9.418Z" fill="#5C6D7D"/>
<path d="M31.1314 10.4692L30.6159 9.6726L33.5899 7.74815L34.1054 8.54475L31.1314 10.4692Z" fill="#5C6D7D"/>
</g>
<defs>
<clipPath id="clip0_424_554">
<rect width="34" height="34" fill="white"/>
</clipPath>
</defs>
</svg>
